<svg width="29" height="28" viewBox="0 0 29 28" fill="none" xmlns="http://www.w3.org/2000/svg">
<g clip-path="url(#clip0_379_676)">
<path fill-rule="evenodd" clip-rule="evenodd" d="M14.97 6.92995C15.2977 7.25808 15.4818 7.70287 15.4818 8.16662C15.4818 8.63037 15.2977 9.07516 14.97 9.40329L10.3757 14L14.9723 18.5966C15.291 18.9268 15.4672 19.369 15.463 19.8278C15.4587 20.2866 15.2745 20.7255 14.9499 21.0498C14.6253 21.3741 14.1862 21.558 13.7274 21.5617C13.2686 21.5655 12.8266 21.3889 12.4967 21.07L6.66334 15.2366C6.33563 14.9085 6.15155 14.4637 6.15155 14C6.15155 13.5362 6.33563 13.0914 6.66334 12.7633L12.4967 6.92995C12.6592 6.76733 12.8522 6.63833 13.0646 6.55031C13.2769 6.46229 13.5046 6.41699 13.7345 6.41699C13.9644 6.41699 14.1921 6.46229 14.4045 6.55031C14.6169 6.63833 14.8098 6.76733 14.9723 6.92995H14.97ZM21.97 6.92995C22.2977 7.25808 22.4818 7.70287 22.4818 8.16662C22.4818 8.63037 22.2977 9.07516 21.97 9.40329L17.3757 14L21.9723 18.5966C22.291 18.9268 22.4672 19.369 22.463 19.8278C22.4587 20.2866 22.2745 20.7255 21.9499 21.0498C21.6253 21.3741 21.1862 21.558 20.7274 21.5617C20.2686 21.5655 19.8266 21.3889 19.4967 21.07L13.6633 15.2366C13.3356 14.9085 13.1516 14.4637 13.1516 14C13.1516 13.5362 13.3356 13.0914 13.6633 12.7633L19.4967 6.92995C19.6592 6.76733 19.8522 6.63833 20.0646 6.55031C20.2769 6.46229 20.5046 6.41699 20.7345 6.41699C20.9644 6.41699 21.1921 6.46229 21.4045 6.55031C21.6169 6.63833 21.8098 6.76733 21.9723 6.92995H21.97Z" fill="#2C3E50"/>
</g>
<defs>
<clipPath id="clip0_379_676">
<rect width="28" height="28" fill="white" transform="translate(0.900024)"/>
</clipPath>
</defs>
</svg>
