<svg width="28" height="28" viewBox="0 0 28 28" fill="none" xmlns="http://www.w3.org/2000/svg">
<g clip-path="url(#clip0_379_684)">
<path fill-rule="evenodd" clip-rule="evenodd" d="M6.93002 6.92976C7.25815 6.60204 7.70294 6.41797 8.16669 6.41797C8.63044 6.41797 9.07523 6.60204 9.40335 6.92976L15.2367 12.7631C15.5644 13.0912 15.7485 13.536 15.7485 13.9998C15.7485 14.4635 15.5644 14.9083 15.2367 15.2364L9.40335 21.0698C9.07161 21.3789 8.63284 21.5472 8.17947 21.5392C7.7261 21.5312 7.29353 21.3475 6.9729 21.0269C6.65227 20.7062 6.46861 20.2737 6.46061 19.8203C6.45261 19.3669 6.6209 18.9282 6.93002 18.5964L11.5244 13.9998L6.92769 9.4031C6.59997 9.07497 6.41589 8.63018 6.41589 8.16643C6.41589 7.70268 6.59997 7.25789 6.92769 6.92976H6.93002ZM13.93 6.92976C14.2581 6.60204 14.7029 6.41797 15.1667 6.41797C15.6304 6.41797 16.0752 6.60204 16.4034 6.92976L22.2367 12.7631C22.5644 13.0912 22.7485 13.536 22.7485 13.9998C22.7485 14.4635 22.5644 14.9083 22.2367 15.2364L16.4034 21.0698C16.0716 21.3789 15.6328 21.5472 15.1795 21.5392C14.7261 21.5312 14.2935 21.3475 13.9729 21.0269C13.6523 20.7062 13.4686 20.2737 13.4606 19.8203C13.4526 19.3669 13.6209 18.9282 13.93 18.5964L18.5244 13.9998L13.9277 9.4031C13.6 9.07497 13.4159 8.63018 13.4159 8.16643C13.4159 7.70268 13.6 7.25789 13.9277 6.92976H13.93Z" fill="#2C3E50"/>
</g>
<defs>
<clipPath id="clip0_379_684">
<rect width="28" height="28" fill="white"/>
</clipPath>
</defs>
</svg>
