<svg width="54" height="27" viewBox="0 0 54 27" fill="none" xmlns="http://www.w3.org/2000/svg">
<path d="M52.8796 20.5158C52.6443 20.65 52.3847 20.7365 52.1159 20.7703C51.8471 20.8041 51.5742 20.7845 51.313 20.7127C51.0517 20.641 50.8072 20.5184 50.5934 20.352C50.3795 20.1856 50.2006 19.9787 50.0669 19.743L45.1729 11.1915C42.3277 13.1153 39.1891 14.5645 35.8796 15.4827L37.3915 24.5546C37.4362 24.8216 37.4277 25.0949 37.3666 25.3587C37.3056 25.6225 37.1932 25.8716 37.0358 26.092C36.8784 26.3123 36.6791 26.4994 36.4493 26.6427C36.2195 26.7859 35.9638 26.8825 35.6967 26.9268C35.5868 26.9448 35.4757 26.9543 35.3644 26.9552C34.8769 26.9544 34.4055 26.7809 34.0339 26.4654C33.6623 26.1499 33.4145 25.7129 33.3347 25.232L31.8485 16.325C28.7143 16.7612 25.5348 16.7612 22.4006 16.325L20.9144 25.232C20.8344 25.7138 20.5859 26.1515 20.2132 26.4671C19.8406 26.7827 19.3679 26.9557 18.8795 26.9552C18.7656 26.9547 18.6519 26.9452 18.5395 26.9268C18.2724 26.8825 18.0167 26.7859 17.7869 26.6427C17.5571 26.4994 17.3579 26.3123 17.2005 26.092C17.0431 25.8716 16.9306 25.6225 16.8696 25.3587C16.8085 25.0949 16.8001 24.8216 16.8447 24.5546L18.3644 15.4827C15.0561 14.5616 11.9193 13.1098 9.07617 11.1838L4.19768 19.743C4.06238 19.9788 3.88196 20.1856 3.66674 20.3517C3.45151 20.5177 3.20569 20.6397 2.94331 20.7107C2.68093 20.7818 2.40712 20.8004 2.13753 20.7657C1.86793 20.7309 1.60783 20.6433 1.37206 20.508C1.1363 20.3727 0.929496 20.1923 0.763457 19.9771C0.597418 19.7619 0.475396 19.5161 0.404359 19.2537C0.333322 18.9913 0.314661 18.7175 0.349441 18.4479C0.384221 18.1783 0.47176 17.9182 0.607062 17.6824L5.75859 8.66726C3.94911 7.10398 2.28522 5.37973 0.787366 3.51573C0.600568 3.30717 0.458234 3.06273 0.36905 2.79732C0.279867 2.53192 0.245705 2.25113 0.26865 1.97208C0.291596 1.69304 0.371168 1.4216 0.502509 1.17433C0.633849 0.927065 0.814203 0.709155 1.03256 0.533908C1.25092 0.35866 1.5027 0.229751 1.77254 0.155048C2.04237 0.080345 2.3246 0.0614148 2.602 0.0994146C2.87939 0.137414 3.14613 0.231547 3.38594 0.376065C3.62574 0.520583 3.83358 0.712455 3.99677 0.939969C8.27253 6.23059 15.7526 12.5309 27.122 12.5309C38.4914 12.5309 45.9714 6.22286 50.2472 0.939969C50.4085 0.707797 50.6159 0.511306 50.8564 0.362719C51.0969 0.214133 51.3654 0.116629 51.6453 0.076275C51.9251 0.0359211 52.2102 0.05358 52.4829 0.128153C52.7556 0.202726 53.0101 0.332619 53.2304 0.509748C53.4508 0.686878 53.6323 0.907456 53.7638 1.15776C53.8952 1.40806 53.9737 1.68273 53.9945 1.96469C54.0152 2.24664 53.9777 2.52985 53.8843 2.79669C53.7908 3.06352 53.6435 3.30828 53.4514 3.51573C51.9536 5.37973 50.2897 7.10398 48.4802 8.66726L53.6317 17.6824C53.77 17.9174 53.8603 18.1775 53.8973 18.4477C53.9343 18.7178 53.9174 18.9926 53.8474 19.2562C53.7775 19.5197 53.6559 19.7668 53.4898 19.983C53.3236 20.1992 53.1162 20.3803 52.8796 20.5158Z" fill="#2C3E50"/>
</svg>
