<svg width="45" height="45" viewBox="0 0 51 51" fill="none" xmlns="http://www.w3.org/2000/svg">
<path d="M26 0.717041C22.717 0.717041 19.4661 1.36369 16.4329 2.62005C13.3998 3.87642 10.6438 5.71791 8.32236 8.03937C3.63395 12.7278 1.00003 19.0866 1.00003 25.717C0.978176 31.4899 2.97701 37.0884 6.65003 41.542L1.65003 46.542C1.30314 46.8936 1.06815 47.34 0.974711 47.825C0.881276 48.31 0.933583 48.8118 1.12503 49.267C1.33268 49.7169 1.66929 50.0948 2.09215 50.353C2.515 50.6112 3.00503 50.7379 3.50003 50.717H26C32.6304 50.717 38.9893 48.0831 43.6777 43.3947C48.3661 38.7063 51 32.3475 51 25.717C51 19.0866 48.3661 12.7278 43.6777 8.03937C38.9893 3.35096 32.6304 0.717041 26 0.717041ZM26 45.717H9.52503L11.85 43.392C12.3157 42.9236 12.577 42.29 12.577 41.6295C12.577 40.9691 12.3157 40.3354 11.85 39.867C8.5765 36.5971 6.53797 32.2934 6.08176 27.689C5.62555 23.0847 6.77989 18.4646 9.3481 14.6158C11.9163 10.7671 15.7395 7.92794 20.1663 6.58197C24.5931 5.23601 29.3497 5.46655 33.6256 7.23432C37.9015 9.0021 41.4322 12.1977 43.6161 16.2768C45.8001 20.3558 46.5022 25.0659 45.6029 29.6046C44.7035 34.1432 42.2583 38.2297 38.6839 41.1676C35.1095 44.1056 30.6269 45.7134 26 45.717ZM38.5 23.217H13.5C12.837 23.217 12.2011 23.4804 11.7323 23.9493C11.2634 24.4181 11 25.054 11 25.717C11 26.3801 11.2634 27.016 11.7323 27.4848C12.2011 27.9536 12.837 28.217 13.5 28.217H38.5C39.1631 28.217 39.799 27.9536 40.2678 27.4848C40.7366 27.016 41 26.3801 41 25.717C41 25.054 40.7366 24.4181 40.2678 23.9493C39.799 23.4804 39.1631 23.217 38.5 23.217ZM33.5 33.217H18.5C17.837 33.217 17.2011 33.4804 16.7323 33.9493C16.2634 34.4181 16 35.054 16 35.717C16 36.3801 16.2634 37.016 16.7323 37.4848C17.2011 37.9537 17.837 38.217 18.5 38.217H33.5C34.1631 38.217 34.799 37.9537 35.2678 37.4848C35.7366 37.016 36 36.3801 36 35.717C36 35.054 35.7366 34.4181 35.2678 33.9493C34.799 33.4804 34.1631 33.217 33.5 33.217ZM18.5 18.217H33.5C34.1631 18.217 34.799 17.9536 35.2678 17.4848C35.7366 17.016 36 16.3801 36 15.717C36 15.054 35.7366 14.4181 35.2678 13.9493C34.799 13.4804 34.1631 13.217 33.5 13.217H18.5C17.837 13.217 17.2011 13.4804 16.7323 13.9493C16.2634 14.4181 16 15.054 16 15.717C16 16.3801 16.2634 17.016 16.7323 17.4848C17.2011 17.9536 17.837 18.217 18.5 18.217Z" fill="#2C3E50"/>
</svg>
