<svg width="34" height="34" viewBox="0 0 34 34" fill="none" xmlns="http://www.w3.org/2000/svg">
<path d="M24.0834 19.8334V28.3334M19.8334 24.0834H28.3334M8.50002 14.1667H11.3334C12.0848 14.1667 12.8055 13.8682 13.3368 13.3369C13.8682 12.8055 14.1667 12.0849 14.1667 11.3334V8.50008C14.1667 7.74863 13.8682 7.02797 13.3368 6.49661C12.8055 5.96526 12.0848 5.66675 11.3334 5.66675H8.50002C7.74857 5.66675 7.0279 5.96526 6.49655 6.49661C5.9652 7.02797 5.66669 7.74863 5.66669 8.50008V11.3334C5.66669 12.0849 5.9652 12.8055 6.49655 13.3369C7.0279 13.8682 7.74857 14.1667 8.50002 14.1667ZM22.6667 14.1667H25.5C26.2515 14.1667 26.9721 13.8682 27.5035 13.3369C28.0348 12.8055 28.3334 12.0849 28.3334 11.3334V8.50008C28.3334 7.74863 28.0348 7.02797 27.5035 6.49661C26.9721 5.96526 26.2515 5.66675 25.5 5.66675H22.6667C21.9152 5.66675 21.1946 5.96526 20.6632 6.49661C20.1319 7.02797 19.8334 7.74863 19.8334 8.50008V11.3334C19.8334 12.0849 20.1319 12.8055 20.6632 13.3369C21.1946 13.8682 21.9152 14.1667 22.6667 14.1667ZM8.50002 28.3334H11.3334C12.0848 28.3334 12.8055 28.0349 13.3368 27.5036C13.8682 26.9722 14.1667 26.2515 14.1667 25.5001V22.6667C14.1667 21.9153 13.8682 21.1946 13.3368 20.6633C12.8055 20.1319 12.0848 19.8334 11.3334 19.8334H8.50002C7.74857 19.8334 7.0279 20.1319 6.49655 20.6633C5.9652 21.1946 5.66669 21.9153 5.66669 22.6667V25.5001C5.66669 26.2515 5.9652 26.9722 6.49655 27.5036C7.0279 28.0349 7.74857 28.3334 8.50002 28.3334Z" stroke="#18181B" stroke-width="2" stroke-linecap="round" stroke-linejoin="round"/>
</svg>
