<svg width="40" height="40" viewBox="0 0 40 40" fill="none" xmlns="http://www.w3.org/2000/svg">
<path fill-rule="evenodd" clip-rule="evenodd" d="M16 7.99995C13.8783 7.99995 11.8434 8.8428 10.3431 10.3431C8.84285 11.8434 8 13.8782 8 15.9999C8 18.1217 8.84285 20.1565 10.3431 21.6568C11.8434 23.1571 13.8783 23.9999 16 23.9999C18.1217 23.9999 20.1566 23.1571 21.6569 21.6568C23.1571 20.1565 24 18.1217 24 15.9999C24 13.8782 23.1571 11.8434 21.6569 10.3431C20.1566 8.8428 18.1217 7.99995 16 7.99995ZM4 15.9999C3.99976 14.1114 4.44528 12.2494 5.30034 10.5654C6.1554 8.88149 7.39584 7.42314 8.92079 6.309C10.4457 5.19485 12.2121 4.45637 14.0763 4.15361C15.9405 3.85085 17.8498 3.99237 19.6489 4.56665C21.4481 5.14092 23.0863 6.13175 24.4303 7.45854C25.7744 8.78533 26.7863 10.4106 27.3837 12.2022C27.9812 13.9938 28.1473 15.9011 27.8687 17.769C27.59 19.637 26.8744 21.4127 25.78 22.9519L35.414 32.5859C35.7783 32.9632 35.9799 33.4684 35.9753 33.9927C35.9708 34.5171 35.7605 35.0188 35.3896 35.3896C35.0188 35.7604 34.5172 35.9707 33.9928 35.9753C33.4684 35.9799 32.9632 35.7783 32.586 35.4139L22.954 25.7819C21.1587 27.0585 19.0467 27.8163 16.8494 27.9722C14.652 28.1281 12.4541 27.6762 10.4966 26.6659C8.53906 25.6556 6.89737 24.126 5.75145 22.2446C4.60552 20.3633 3.99957 18.2028 4 15.9999Z" fill="white"/>
</svg>
