<svg width="56" height="45" viewBox="0 0 56 53" fill="none" xmlns="http://www.w3.org/2000/svg">
<path d="M55.2307 15.4425L52.4668 23.1595V23.1322C51.0438 22.6122 49.6481 22.6943 48.2799 23.3511C46.9116 24.0079 45.9538 25.0478 45.4339 26.4708C44.9139 27.8938 44.996 29.2894 45.6254 30.6576C46.2822 32.0259 47.3221 32.9563 48.7725 33.4763V33.5036L46.0086 41.2207L4.79636 26.4981L7.50553 18.8632C8.92852 19.3831 10.3242 19.301 11.6924 18.6443C13.0607 18.0149 13.9911 16.975 14.5111 15.552C15.031 14.129 14.9489 12.7334 14.2921 11.3651C13.9929 10.7145 13.5644 10.1315 13.0328 9.6517C12.5012 9.17186 11.8776 8.80513 11.1998 8.57382L13.9911 0.719971L55.2307 15.4425ZM41.6301 31.0134L45.3792 20.724C45.7075 19.8757 45.6528 18.9453 45.2697 18.1243C44.8866 17.3034 44.2024 16.674 43.3541 16.3456L22.7754 8.87484C21.024 8.24544 19.0263 9.20322 18.3969 10.8999L14.6479 21.1892C13.9911 22.968 14.9215 24.9383 16.6729 25.5677L37.2516 33.0658C37.6348 33.2026 38.0179 33.2847 38.4284 33.2847C39.8514 33.2847 41.1649 32.3817 41.6301 31.0134ZM22.3102 10.161L42.8615 17.6317C43.3815 17.8233 43.792 18.2064 44.0383 18.699C44.2572 19.1916 44.2845 19.7389 44.093 20.2588L40.3439 30.5482C39.9882 31.5881 38.7567 32.1627 37.7169 31.7796L17.1655 24.2815C16.654 24.0963 16.2369 23.7155 16.006 23.2229C15.7751 22.7303 15.7492 22.1661 15.934 21.6545L19.6831 11.3651C19.9568 10.5715 20.7503 10.0242 21.5987 10.0242C21.845 10.0242 22.0639 10.0789 22.3102 10.161ZM40.9733 43.3825C41.9311 44.1214 43.0257 44.5045 44.2572 44.5045H44.2845V52.7141H0.5V44.614C2.00509 44.614 3.31863 44.0667 4.35851 42.9994C5.42576 41.9595 5.97307 40.646 5.97307 39.1409C5.97307 37.6358 5.42576 36.3496 4.35851 35.2824C3.29126 34.2151 2.00509 33.6678 0.5 33.6678V25.3488H3.37336L2.60713 27.538L10.461 30.3293C9.06535 30.7671 8.02547 32.0259 8.02547 33.5584V44.5045C8.02547 46.3927 9.55793 47.9252 11.4461 47.9252H33.3384C35.2266 47.9252 36.7591 46.3927 36.7591 44.5045V39.7156L39.0304 40.5365C39.3588 41.7132 40.0155 42.671 40.9733 43.3825ZM9.39373 44.5045V33.5584C9.39373 32.4364 10.3242 31.506 11.4461 31.506H13.7175L35.3908 39.2504V44.5045C35.3908 45.6265 34.4604 46.5569 33.3384 46.5569H11.4461C10.3242 46.5569 9.39373 45.6265 9.39373 44.5045Z" fill="#2C3E50"/>
</svg>
